<?xml version="1.0" encoding="UTF-8" standalone="no"?><!DOCTYPE svg PUBLIC "-//W3C//DTD SVG 1.1//EN" "http://www.w3.org/Graphics/SVG/1.1/DTD/svg11.dtd"><svg width="100%" height="100%" viewBox="0 0 461 260" version="1.1" xmlns="http://www.w3.org/2000/svg" xmlns:xlink="http://www.w3.org/1999/xlink" xml:space="preserve" style="fill-rule:evenodd;clip-rule:evenodd;stroke-linejoin:round;stroke-miterlimit:1.41421;"><path d="M129.784,36.207c5.32,-1.916 11.254,-0.931 15.671,2.601c4.416,3.532 6.681,9.104 5.981,14.716c-6.899,55.336 -22.67,181.827 -27.39,219.681c-0.275,2.208 -1.722,4.094 -3.783,4.932c-2.061,0.838 -4.414,0.496 -6.152,-0.894c-34.145,-27.307 -160.224,-128.136 -194.369,-155.443c-1.738,-1.39 -2.588,-3.61 -2.224,-5.805c0.364,-2.195 1.886,-4.021 3.98,-4.775c35.89,-12.925 155.82,-56.117 208.286,-75.013Z" style="fill:#00928b;fill-opacity:0.0941176;"/><path d="M353.886,67.934c-2.22,0.531 -4.557,-0.128 -6.172,-1.742c-1.614,-1.614 -2.275,-3.95 -1.744,-6.171c5.688,-23.791 19.595,-81.966 25.346,-106.021c0.517,-2.164 2.163,-3.879 4.304,-4.484c2.141,-0.605 4.442,-0.006 6.016,1.567c18.125,18.117 63.048,63.023 81.174,81.14c1.573,1.573 2.173,3.874 1.569,6.015c-0.604,2.141 -2.319,3.788 -4.482,4.307c-24.053,5.76 -82.222,19.691 -106.011,25.389Z" style="fill:#00928b;fill-opacity:0.0941176;"/><g><path d="M121.389,176.822c0.82,0.438 1.337,1.287 1.35,2.217c0.013,0.93 -0.48,1.793 -1.288,2.253c-12.11,6.908 -47.872,27.308 -55.087,31.423c-0.791,0.451 -1.761,0.447 -2.548,-0.01c-7.147,-4.153 -42.426,-24.655 -54.398,-31.612c-0.802,-0.466 -1.288,-1.331 -1.27,-2.259c0.019,-0.928 0.54,-1.773 1.36,-2.207c12.171,-6.431 47.865,-25.291 54.866,-28.99c0.75,-0.397 1.648,-0.395 2.397,0.005c6.973,3.726 42.475,22.693 54.618,29.18Z" style="fill:#fff;"/><path d="M6.438,172.182c-0.782,0.412 -1.722,0.391 -2.484,-0.057c-0.762,-0.448 -1.239,-1.259 -1.259,-2.142c-0.289,-12.394 -1.142,-48.962 -1.329,-56.978c-0.022,-0.96 0.496,-1.852 1.342,-2.307c7.582,-4.087 44.315,-23.889 56.272,-30.335c0.792,-0.427 1.75,-0.406 2.522,0.056c0.772,0.461 1.245,1.295 1.244,2.194c-0.013,12.792 -0.051,50.328 -0.06,58.398c-0.001,0.946 -0.525,1.815 -1.363,2.256c-7.44,3.92 -43.265,22.794 -54.885,28.915Z" style="fill:#fff;"/><path d="M124.706,172.182c0.782,0.412 1.722,0.391 2.484,-0.057c0.762,-0.448 1.239,-1.259 1.259,-2.142c0.289,-12.394 1.142,-48.962 1.329,-56.978c0.022,-0.96 -0.496,-1.852 -1.342,-2.307c-7.582,-4.087 -44.315,-23.889 -56.272,-30.335c-0.792,-0.427 -1.75,-0.406 -2.522,0.056c-0.772,0.461 -1.245,1.295 -1.244,2.194c0.013,12.792 0.051,50.328 0.06,58.398c0,0.946 0.525,1.815 1.363,2.256c7.44,3.92 43.265,22.794 54.885,28.915Z" style="fill:#fff;"/></g><g><path d="M370.43,-1.483c-0.767,-0.526 -1.187,-1.427 -1.097,-2.353c0.09,-0.925 0.675,-1.729 1.529,-2.097c7.351,-3.176 22.099,-9.547 26.621,-11.501c0.836,-0.36 1.8,-0.249 2.532,0.292c3.938,2.914 16.726,12.377 23.115,17.104c0.746,0.552 1.134,1.465 1.013,2.386c-0.121,0.92 -0.732,1.702 -1.596,2.042c-7.356,2.9 -22.021,8.681 -26.399,10.407c-0.789,0.311 -1.681,0.21 -2.381,-0.27c-3.872,-2.657 -16.821,-11.54 -23.337,-16.01Z" style="fill:#fff;"/><path d="M424.062,6.702c0.823,-0.323 1.754,-0.198 2.463,0.331c0.708,0.53 1.092,1.388 1.014,2.268c-0.617,7.054 -1.852,21.164 -2.263,25.858c-0.084,0.957 -0.697,1.786 -1.588,2.146c-4.751,1.918 -19.952,8.057 -27.241,11c-0.834,0.337 -1.784,0.21 -2.5,-0.334c-0.717,-0.543 -1.094,-1.424 -0.994,-2.318c0.814,-7.261 2.434,-21.714 2.963,-26.434c0.106,-0.941 0.723,-1.746 1.604,-2.092c4.656,-1.829 19.465,-7.646 26.542,-10.425Z" style="fill:#fff;"/><path d="M368.309,0.509c-0.732,-0.496 -1.669,-0.578 -2.476,-0.217c-0.807,0.362 -1.37,1.114 -1.488,1.99c-0.945,7.017 -2.836,21.055 -3.465,25.725c-0.129,0.952 0.288,1.895 1.078,2.441c4.214,2.915 17.698,12.24 24.164,16.71c0.739,0.512 1.694,0.597 2.512,0.223c0.818,-0.373 1.38,-1.149 1.478,-2.044c0.8,-7.262 2.39,-21.718 2.91,-26.439c0.103,-0.941 -0.322,-1.863 -1.106,-2.394c-4.141,-2.805 -17.313,-11.73 -23.607,-15.995Z" style="fill:#fff;"/></g><g><path d="M470.611,247.378c0.919,0.138 1.691,0.765 2.015,1.637c0.323,0.871 0.148,1.85 -0.459,2.555c-7.209,8.376 -25.162,29.234 -29.509,34.285c-0.594,0.69 -1.51,1.011 -2.405,0.844c-6.517,-1.218 -33.319,-6.225 -44.106,-8.24c-0.912,-0.171 -1.66,-0.823 -1.953,-1.703c-0.294,-0.881 -0.086,-1.851 0.542,-2.535c7.382,-8.037 25.641,-27.915 29.942,-32.598c0.574,-0.625 1.421,-0.924 2.26,-0.798c6.276,0.942 32.883,4.934 43.673,6.553Z" style="fill:#00928b;fill-opacity:0.133333;"/><path d="M391.415,271.983c-0.599,0.65 -1.492,0.944 -2.36,0.778c-0.868,-0.167 -1.588,-0.771 -1.904,-1.597c-3.501,-9.16 -12.204,-31.933 -14.493,-37.922c-0.342,-0.897 -0.153,-1.911 0.491,-2.623c4.637,-5.133 23.381,-25.883 30.618,-33.895c0.603,-0.667 1.513,-0.968 2.395,-0.792c0.882,0.176 1.606,0.803 1.907,1.651c3.381,9.537 11.743,33.123 13.901,39.207c0.316,0.893 0.113,1.887 -0.529,2.583c-4.574,4.968 -22.954,24.929 -30.026,32.61Z" style="fill:#00928b;fill-opacity:0.133333;"/><path d="M471.899,243.355c0.875,0.127 1.753,-0.209 2.321,-0.886c0.568,-0.678 0.746,-1.601 0.469,-2.441c-3.071,-9.314 -10.703,-32.467 -12.71,-38.556c-0.301,-0.912 -1.088,-1.578 -2.037,-1.724c-6.837,-1.052 -34.474,-5.305 -45.145,-6.947c-0.889,-0.137 -1.784,0.204 -2.357,0.898c-0.573,0.693 -0.739,1.637 -0.436,2.484c3.401,9.531 11.81,33.099 13.98,39.179c0.318,0.892 1.104,1.535 2.041,1.67c6.684,0.963 33.541,4.834 43.874,6.323Z" style="fill:#00928b;fill-opacity:0.133333;"/></g></svg>